Coordinates
version=1
nRows=7
nColumns=60
inDegrees=yes

Units are S.I. units (second, meters, Newtons, ...)
If the header above contains a line with 'inDegrees', this indicates whether rotational values are in degrees (yes) or radians (no).

endheader
time	pelvis_tilt	pelvis_list	pelvis_rotation	pelvis_tx	pelvis_ty	pelvis_tz	hip_flexion_r	hip_adduction_r	hip_rotation_r	knee_angle_r_beta	knee_angle_r	ankle_angle_r	subtalar_angle_r	mtp_angle_r	hip_flexion_l	hip_adduction_l	hip_rotation_l	knee_angle_l_beta	knee_angle_l	ankle_angle_l	subtalar_angle_l	mtp_angle_l	L5_S1_Flex_Ext	L5_S1_Lat_Bending	L5_S1_axial_rotation	L4_L5_Flex_Ext	L4_L5_Lat_Bending	L4_L5_axial_rotation	L3_L4_Flex_Ext	L3_L4_Lat_Bending	L3_L4_axial_rotation	L2_L3_Flex_Ext	L2_L3_Lat_Bending	L2_L3_axial_rotation	L1_L2_Flex_Ext	L1_L2_Lat_Bending	L1_L2_axial_rotation	L1_T12_Flex_Ext	L1_T12_Lat_Bending	L1_T12_axial_rotation	Abs_r3	Abs_r2	Abs_r1	Abs_t1	Abs_t2	arm_flex_r	arm_add_r	arm_rot_r	elbow_flex_r	pro_sup_r	wrist_flex_r	wrist_dev_r	arm_flex_l	arm_add_l	arm_rot_l	elbow_flex_l	pro_sup_l	wrist_flex_l	wrist_dev_l
      2.44000000	      1.39032987	    -14.84819776	     94.99062631	      0.40295145	      0.82046081	      0.40687041	     54.20621563	     -7.80389323	     -1.23658146	      0.89142386	    -51.07482510	     14.06512000	      0.00000000	      0.00000000	     55.82787073	     -5.59774458	      0.50941778	      0.86280059	    -49.43483221	     12.06213070	      0.00000000	      0.00000000	    -10.91662763	      0.35097409	     -0.00533261	    -20.27326916	      0.46679554	     -0.00566589	    -17.93492753	      0.85335841	     -0.00566589	    -12.47661371	      0.85335841	     -0.00466603	    -10.13718041	      0.71570637	     -0.00433274	     -6.23776103	      0.54365887	     -0.00399945	    -77.97637947	      3.97028914	     -0.02965835	      0.00000000	      0.00000000	     81.68309563	    -18.46401015	     22.17930419	     52.06283762	     63.29994987	    -18.46476259	     24.90845678	     90.30903911	    -17.21158561	     41.63703513	     44.63189662	     48.33121591	    -18.72679238	     18.54678643
      2.45000000	      1.38634719	    -14.82028578	     95.00873183	      0.40283728	      0.82019588	      0.40711535	     54.23948218	     -7.78020471	     -1.13191308	      0.89289834	    -51.15930652	     14.08024476	      0.00000000	      0.00000000	     55.87495962	     -5.56817206	      0.55101971	      0.86455763	    -49.53550322	     12.07649799	      0.00000000	      0.00000000	    -10.92783195	      0.35024899	     -0.01015105	    -20.29407672	      0.46583116	     -0.01078549	    -17.95333512	      0.85159540	     -0.01078549	    -12.48941914	      0.85159540	     -0.00888217	    -10.14758475	      0.71422775	     -0.00824773	     -6.24416318	      0.54253569	     -0.00761329	    -78.05641087	      3.96208667	     -0.05645708	      0.00000000	      0.00000000	     81.62747363	    -18.49753370	     22.08102151	     52.24536233	     63.38214613	    -18.51114115	     24.86908723	     90.27835114	    -17.24544083	     41.52462308	     44.78712370	     48.44381068	    -18.76629198	     18.49682783
      2.46000000	      1.37651003	    -14.85262391	     95.01666984	      0.40271373	      0.81986690	      0.40723430	     54.29756623	     -7.79453839	     -1.11753182	      0.89329301	    -51.18191948	     14.09739306	      0.00000000	      0.00000000	     55.93377185	     -5.55168893	      0.53845761	      0.86484829	    -49.55215671	     12.09249492	      0.00000000	      0.00000000	    -10.92472186	      0.35153533	     -0.00210402	    -20.28830097	      0.46754199	     -0.00223552	    -17.94822555	      0.85472301	     -0.00223552	    -12.48586462	      0.85472301	     -0.00184102	    -10.14469672	      0.71685085	     -0.00170952	     -6.24238607	      0.54452823	     -0.00157802	    -78.03419579	      3.97663801	     -0.01170195	      0.00000000	      0.00000000	     81.43892109	    -18.76866862	     22.18030241	     52.73743606	     63.26090271	    -18.73735852	     24.87816860	     90.09406506	    -17.21623526	     41.24232044	     45.02620417	     48.70261775	    -18.80782887	     18.49002783
      2.47000000	      1.37606203	    -14.87722062	     95.03225319	      0.40259819	      0.81963653	      0.40735450	     54.35827535	     -7.80618746	     -1.08174494	      0.89387484	    -51.21525600	     14.11330333	      0.00000000	      0.00000000	     55.99229563	     -5.52655649	      0.53628031	      0.86534760	    -49.58076534	     12.10804079	      0.00000000	      0.00000000	    -10.92292361	      0.35286512	      0.00793363	    -20.28496144	      0.46931061	      0.00842948	    -17.94527120	      0.85795626	      0.00842948	    -12.48380940	      0.85795626	      0.00694192	    -10.14302687	      0.71956256	      0.00644607	     -6.24135855	      0.54658808	      0.00595022	    -78.02135106	      3.99168086	      0.04412446	      0.00000000	      0.00000000	     81.27178942	    -19.01607071	     22.25623994	     53.19776532	     63.15336456	    -18.94693827	     24.89117609	     89.93649587	    -17.19062310	     40.96524093	     45.26049689	     48.96844465	    -18.84688451	     18.50661656
      2.48000000	      1.33381032	    -14.98087547	     94.98785246	      0.40264121	      0.81922526	      0.40733346	     54.55384280	     -7.76800987	     -0.90882150	      0.89661042	    -51.37199319	     14.19249642	      0.00000000	      0.00000000	     56.15449809	     -5.53729226	      0.44642725	      0.86776940	    -49.71952408	     12.22094706	      0.00000000	      0.00000000	    -10.92781945	      0.33993673	     -0.00884936	    -20.29405350	      0.45211585	     -0.00940244	    -17.95331458	      0.82652216	     -0.00940244	    -12.48940485	      0.82652216	     -0.00774319	    -10.14757314	      0.69319898	     -0.00719010	     -6.24415603	      0.52656199	     -0.00663702	    -78.05632156	      3.84543226	     -0.04921747	      0.00000000	      0.00000000	     80.72184513	    -18.62075223	     20.51545945	     54.07967698	     64.75004934	    -18.64905636	     26.09491607	     89.10614751	    -17.34302550	     38.57032343	     46.84506189	     51.40096444	    -19.13178805	     20.20223504
      2.49000000	      1.32587304	    -15.00181217	     94.99384863	      0.40254253	      0.81911588	      0.40736617	     54.59666330	     -7.77812051	     -0.88683274	      0.89692650	    -51.39010319	     14.19640660	      0.00000000	      0.00000000	     56.19289157	     -5.50976472	      0.45290446	      0.86808350	    -49.73752103	     12.22397729	      0.00000000	      0.00000000	    -10.92238058	      0.34144962	      0.00355575	    -20.28395297	      0.45412799	      0.00377799	    -17.94437905	      0.83020060	      0.00377799	    -12.48318876	      0.83020060	      0.00311128	    -10.14252261	      0.69628406	      0.00288905	     -6.24104826	      0.52890546	      0.00266681	    -78.01747224	      3.86254637	      0.01977603	      0.00000000	      0.00000000	     80.56319621	    -18.90627105	     20.68899056	     54.51823496	     64.55517252	    -18.87981071	     26.06831966	     88.94901068	    -17.28711490	     38.35195120	     47.01526756	     51.60000291	    -19.14719664	     20.16555573
      2.50000000	      1.32488659	    -14.98757710	     94.98698107	      0.40248939	      0.81906651	      0.40731032	     54.60049940	     -7.76509670	     -0.84620834	      0.89751619	    -51.42388956	     14.18693594	      0.00000000	      0.00000000	     56.19638666	     -5.50358963	      0.47423927	      0.86868297	    -49.77186794	     12.21927974	      0.00000000	      0.00000000	    -10.91629722	      0.34320277	      0.01709508	    -20.27265556	      0.45645969	      0.01816352	    -17.93438470	      0.83446323	      0.01816352	    -12.47623609	      0.83446323	      0.01495819	    -10.13687360	      0.69985910	      0.01388975	     -6.23757223	      0.53162110	      0.01282131	    -77.97401940	      3.88237843	      0.09507768	      0.00000000	      0.00000000	     80.39788082	    -19.12462625	     20.81601010	     54.82907854	     64.39852781	    -19.02450712	     26.04811704	     88.75569308	    -17.24525696	     38.14846156	     47.19231846	     51.79788533	    -19.19389284	     20.18272933
